<?xml version="1.0" encoding="utf-8"?>
<!-- Generator: Adobe Illustrator 24.1.0, SVG Export Plug-In . SVG Version: 6.00 Build 0)  -->
<svg version="1.1" id="Layer_1" xmlns="http://www.w3.org/2000/svg" xmlns:xlink="http://www.w3.org/1999/xlink" x="0px" y="0px"
	viewBox="0 0 168.77 54.96" enable-background="new 0 0 168.77 54.96" xml:space="preserve">
<rect x="4.34" y="6.45" width="77.87" height="38.13"/>
	<g>
	<path fill="none" stroke="#FFFFFF" stroke-miterlimit="10" d="M105.76,42.6v-1.21c2.69-0.38,3.06-0.75,2.49-2.46
		c-0.61-1.68-1.39-3.79-2.31-6.21h-9.28c-0.72,1.94-1.3,3.58-1.85,5.26c-0.92,2.57-0.58,3.06,2.69,3.41v1.21h-9.54v-1.21
		c2.8-0.43,3.41-0.72,4.94-4.48l9.07-22.05l1.5-0.38c2.77,7.48,5.55,15,8.41,22.43c1.39,3.73,1.99,4.19,4.8,4.48v1.21H105.76z
		 M101.51,20.29h-0.09c-1.39,3.5-2.75,7.11-4.05,10.52h7.92L101.51,20.29z"/>
		<path fill="none" stroke="#FFFFFF" stroke-miterlimit="10" d="M130.56,15.12c3.09,0,5.58,0.49,7.31,1.76
		c1.73,1.27,2.83,3.24,2.83,6.01c0,5.52-4.22,8.18-8.44,8.67c-0.66,0.09-1.56,0.09-2.02,0.06l-3.24-0.81v6.44
		c0,3.61,0.38,3.84,4.31,4.13v1.21h-12.08v-1.21c3.44-0.29,3.81-0.64,3.81-4.16V20.55c0-3.79-0.38-3.96-3.58-4.16v-1.27H130.56z
		 M127.01,29.34c0.55,0.2,1.73,0.52,3.09,0.52c2.69,0,6.1-1.44,6.1-6.82c0-4.6-2.95-6.5-6.36-6.5c-1.19,0-2.08,0.23-2.37,0.52
		s-0.46,0.75-0.46,1.94V29.34z"/>
		<path fill="none" stroke="#FFFFFF" stroke-miterlimit="10" d="M155.3,15.12c3.09,0,5.58,0.49,7.31,1.76
		c1.73,1.27,2.83,3.24,2.83,6.01c0,5.52-4.22,8.18-8.44,8.67c-0.66,0.09-1.56,0.09-2.02,0.06l-3.24-0.81v6.44
		c0,3.61,0.38,3.84,4.31,4.13v1.21h-12.08v-1.21c3.44-0.29,3.81-0.64,3.81-4.16V20.55c0-3.79-0.38-3.96-3.58-4.16v-1.27H155.3z
		 M151.75,29.34c0.55,0.2,1.73,0.52,3.09,0.52c2.69,0,6.1-1.44,6.1-6.82c0-4.6-2.95-6.5-6.36-6.5c-1.19,0-2.08,0.23-2.37,0.52
		s-0.46,0.75-0.46,1.94V29.34z"/>
</g>
	<rect x="-3.06" y="6.95" display="none" width="84.25" height="42.64"/>
	<g>
	<path fill="#FFFFFF" d="M21.21,15.12c5.52,0,9.74,1.13,12.43,3.61c2.14,2.05,3.7,5.14,3.7,9.1c0,5-2.05,8.79-5.43,11.27
		c-3.32,2.4-7.75,3.5-13.09,3.5H8.06v-1.21c3.7-0.26,4.08-0.52,4.08-4.13V20.5c0-3.64-0.38-3.81-3.7-4.08v-1.3H21.21z M16.18,36.88
		c0,3.35,1.47,4.13,4.65,4.13c8.06,0,11.94-5.87,11.94-12.51c0-4.36-1.71-7.95-4.88-9.94c-1.99-1.33-4.6-1.97-7.69-1.97
		c-1.94,0-3.01,0.29-3.47,0.58c-0.4,0.29-0.55,0.81-0.55,2.46V36.88z"/>
		<path fill="#FFFFFF" d="M50.54,23.67c5.49,0,9.54,4.25,9.54,9.36c0,6.82-5.2,10.06-9.57,10.06c-6.16,0-9.74-4.62-9.74-9.28
		c0-6.91,5.66-10.14,9.74-10.14H50.54z M50,25.09c-2.49,0-4.8,2.51-4.8,7.28c0,5.35,2.31,9.25,5.78,9.25c2.49,0,4.71-1.68,4.71-7.6
		c0-5.06-2.02-8.93-5.64-8.93H50z"/>
		<path fill="#FFFFFF" d="M79.36,38.7c-1.94,2.51-4.85,4.39-7.37,4.39c-5.61,0-8.84-4.33-8.84-8.81c0-3.21,1.47-6.07,4.36-8.21
		c2.37-1.73,4.97-2.4,6.62-2.4h0.06c1.76,0,3.18,0.52,3.87,1.13c0.58,0.46,0.69,0.84,0.69,1.3c0,0.98-0.95,1.94-1.5,1.94
		c-0.26,0-0.46-0.12-0.84-0.49c-1.39-1.24-2.86-1.82-4.39-1.82c-2.66,0-5.09,2.14-5.09,6.62c0,5.81,4.22,7.69,6.53,7.69
		c1.79,0,3.24-0.49,5.17-2.28L79.36,38.7z"/>
</g>
</svg>
